
<svg width="56" height="68" viewBox="0 0 56 68" fill="none" xmlns="http://www.w3.org/2000/svg">
<g filter="url(#filter0_d_260_1471)">
<circle cx="28" cy="33" r="16" fill="url(#paint0_radial_260_1471)"/>
<circle cx="28" cy="33" r="16" fill="url(#paint1_linear_260_1471)"/>
<circle cx="28" cy="33" r="15" stroke="#D67504" stroke-opacity="0.27" stroke-width="2"/>
</g>
<g filter="url(#filter1_di_260_1471)">
<path d="M32.5 39.5C32.5 43.0899 30.4853 45 28 45C25.5147 45 23.5 43.0899 23.5 39.5C23.5 35.9101 25.5147 32 28 32C30.4853 32 32.5 35.9101 32.5 39.5Z" fill="#EB5D3E"/>
</g>
<g filter="url(#filter2_d_260_1471)">
<path d="M23 23L23.5904 24.1786C24.0738 25.1436 24.8564 25.9262 25.8214 26.4096L27 27L25.8214 27.5904C24.8564 28.0738 24.0738 28.8564 23.5904 29.8214L23 31L22.4096 29.8214C21.9262 28.8564 21.1436 28.0738 20.1786 27.5904L19 27L20.1786 26.4096C21.1436 25.9262 21.9262 25.1436 22.4096 24.1786L23 23Z" fill="#FAFAFA"/>
</g>
<g filter="url(#filter3_d_260_1471)">
<path d="M33 23L33.5904 24.1786C34.0738 25.1436 34.8564 25.9262 35.8214 26.4096L37 27L35.8214 27.5904C34.8564 28.0738 34.0738 28.8564 33.5904 29.8214L33 31L32.4096 29.8214C31.9262 28.8564 31.1436 28.0738 30.1786 27.5904L29 27L30.1786 26.4096C31.1436 25.9262 31.9262 25.1436 32.4096 24.1786L33 23Z" fill="#FAFAFA"/>
</g>
<path d="M39.5 31C39.825 31.6488 40.3512 32.175 41 32.5C40.3512 32.825 39.825 33.3512 39.5 34C39.175 33.3512 38.6488 32.825 38 32.5C38.6488 32.175 39.175 31.6488 39.5 31Z" fill="#85EDED"/>
<path d="M18.5 31C18.825 31.6488 19.3512 32.175 20 32.5C19.3512 32.825 18.825 33.3512 18.5 34C18.175 33.3512 17.6488 32.825 17 32.5C17.6488 32.175 18.175 31.6488 18.5 31Z" fill="#85EDED"/>
<path d="M19.5 20C19.825 20.6488 20.3512 21.175 21 21.5C20.3512 21.825 19.825 22.3512 19.5 23C19.175 22.3512 18.6488 21.825 18 21.5C18.6488 21.175 19.175 20.6488 19.5 20Z" fill="#85EDED"/>
<path d="M13.5 28C13.825 28.6488 14.3512 29.175 15 29.5C14.3512 29.825 13.825 30.3512 13.5 31C13.175 30.3512 12.6488 29.825 12 29.5C12.6488 29.175 13.175 28.6488 13.5 28Z" fill="#85EDED"/>
<path d="M32.5 20C32.825 20.6488 33.3512 21.175 34 21.5C33.3512 21.825 32.825 22.3512 32.5 23C32.175 22.3512 31.6488 21.825 31 21.5C31.6488 21.175 32.175 20.6488 32.5 20Z" fill="#85EDED"/>
<defs>
<filter id="filter0_d_260_1471" x="8" y="17" width="40" height="40" filterUnits="userSpaceOnUse" color-interpolation-filters="sRGB">
<feFlood flood-opacity="0" result="BackgroundImageFix"/>
<feColorMatrix in="SourceAlpha" type="matrix" values="0 0 0 0 0 0 0 0 0 0 0 0 0 0 0 0 0 0 127 0" result="hardAlpha"/>
<feOffset dy="4"/>
<feGaussianBlur stdDeviation="2"/>
<feColorMatrix type="matrix" values="0 0 0 0 0.9 0 0 0 0 0.6165 0 0 0 0 0.19125 0 0 0 0.33 0"/>
<feBlend mode="normal" in2="BackgroundImageFix" result="effect1_dropShadow_260_1471"/>
<feBlend mode="normal" in="SourceGraphic" in2="effect1_dropShadow_260_1471" result="shape"/>
</filter>
<filter id="filter1_di_260_1471" x="22.5" y="32" width="11" height="15" filterUnits="userSpaceOnUse" color-interpolation-filters="sRGB">
<feFlood flood-opacity="0" result="BackgroundImageFix"/>
<feColorMatrix in="SourceAlpha" type="matrix" values="0 0 0 0 0 0 0 0 0 0 0 0 0 0 0 0 0 0 127 0" result="hardAlpha"/>
<feOffset dy="1"/>
<feGaussianBlur stdDeviation="0.5"/>
<feColorMatrix type="matrix" values="0 0 0 0 1 0 0 0 0 1 0 0 0 0 1 0 0 0 0.35 0"/>
<feBlend mode="normal" in2="BackgroundImageFix" result="effect1_dropShadow_260_1471"/>
<feBlend mode="normal" in="SourceGraphic" in2="effect1_dropShadow_260_1471" result="shape"/>
<feColorMatrix in="SourceAlpha" type="matrix" values="0 0 0 0 0 0 0 0 0 0 0 0 0 0 0 0 0 0 127 0" result="hardAlpha"/>
<feOffset dy="1"/>
<feGaussianBlur stdDeviation="1"/>
<feComposite in2="hardAlpha" operator="arithmetic" k2="-1" k3="1"/>
<feColorMatrix type="matrix" values="0 0 0 0 0 0 0 0 0 0 0 0 0 0 0 0 0 0 0.25 0"/>
<feBlend mode="normal" in2="shape" result="effect2_innerShadow_260_1471"/>
</filter>
<filter id="filter2_d_260_1471" x="17" y="21" width="12" height="12" filterUnits="userSpaceOnUse" color-interpolation-filters="sRGB">
<feFlood flood-opacity="0" result="BackgroundImageFix"/>
<feColorMatrix in="SourceAlpha" type="matrix" values="0 0 0 0 0 0 0 0 0 0 0 0 0 0 0 0 0 0 127 0" result="hardAlpha"/>
<feOffset/>
<feGaussianBlur stdDeviation="1"/>
<feColorMatrix type="matrix" values="0 0 0 0 0.570833 0 0 0 0 0.292552 0 0 0 0 0.0356771 0 0 0 0.5 0"/>
<feBlend mode="normal" in2="BackgroundImageFix" result="effect1_dropShadow_260_1471"/>
<feBlend mode="normal" in="SourceGraphic" in2="effect1_dropShadow_260_1471" result="shape"/>
</filter>
<filter id="filter3_d_260_1471" x="27" y="21" width="12" height="12" filterUnits="userSpaceOnUse" color-interpolation-filters="sRGB">
<feFlood flood-opacity="0" result="BackgroundImageFix"/>
<feColorMatrix in="SourceAlpha" type="matrix" values="0 0 0 0 0 0 0 0 0 0 0 0 0 0 0 0 0 0 127 0" result="hardAlpha"/>
<feOffset/>
<feGaussianBlur stdDeviation="1"/>
<feColorMatrix type="matrix" values="0 0 0 0 0.570833 0 0 0 0 0.292552 0 0 0 0 0.0356771 0 0 0 0.5 0"/>
<feBlend mode="normal" in2="BackgroundImageFix" result="effect1_dropShadow_260_1471"/>
<feBlend mode="normal" in="SourceGraphic" in2="effect1_dropShadow_260_1471" result="shape"/>
</filter>
<radialGradient id="paint0_radial_260_1471" cx="0" cy="0" r="1" gradientUnits="userSpaceOnUse" gradientTransform="translate(28 17) rotate(90) scale(32)">
<stop stop-color="#EED919"/>
<stop offset="1" stop-color="#F1BE08"/>
</radialGradient>
<linearGradient id="paint1_linear_260_1471" x1="28" y1="17" x2="28" y2="49" gradientUnits="userSpaceOnUse">
<stop stop-color="white" stop-opacity="0.52"/>
<stop offset="1" stop-color="white" stop-opacity="0"/>
<stop offset="1" stop-color="white" stop-opacity="0"/>
</linearGradient>
</defs>
</svg>
